<svg width="844" height="837" viewBox="0 0 844 837" fill="none" xmlns="http://www.w3.org/2000/svg">
<g opacity="0.2">
<path d="M752.673 316.809C754.275 322.787 754.132 330.481 752.021 341.239C746.15 369.863 715.141 405.91 682.337 443.987C664.332 464.939 645.702 486.574 631.206 507.187C603.567 539.021 590.668 583.892 578.149 627.328C569.017 659.062 560.358 689.034 546.489 714.168L546.458 714.219C535.536 733.23 522.979 744.12 508.096 747.506C479.054 754.127 445.419 731.014 406.476 704.206L402.729 701.64C373.749 681.795 335.534 657.372 278.874 622.366L274.2 619.361C224.864 587.683 163.457 548.229 116.6 488.362C13.7245 370.868 33.5709 238.597 79.4584 186.22C134.36 129.707 204.644 114.487 348.21 127.97C497.929 142.255 633.281 226.491 684.511 262.048C702.397 277.426 716.933 286.175 727.544 292.535C740.962 300.637 749.748 305.895 752.673 316.809ZM541.513 711.716C555.081 687.137 563.637 657.45 572.718 626.031C585.37 582.086 598.466 536.603 626.731 504.086C641.216 483.432 659.951 461.683 678.028 440.669C710.342 403.11 740.871 367.622 746.488 340.399C751.676 313.592 744.809 309.454 724.419 297.156C713.639 290.67 698.839 281.776 680.837 266.301C630.177 231.193 495.838 147.546 347.454 133.376C205.96 120.069 136.903 134.832 83.5577 189.766C39.0587 240.61 20.0235 369.697 120.952 484.959C167.374 544.212 228.348 583.394 277.315 614.871L281.979 617.836C338.692 652.871 376.959 677.323 406.003 697.236L409.749 699.802C447.596 725.872 480.291 748.334 506.835 742.296C520.102 739.258 531.413 729.26 541.513 711.716Z" fill="#A7CEFC"/>
<path d="M716.828 335.144C719.043 343.409 718.617 352.899 716.931 366.252L716.912 366.516C710.974 392.878 686.622 419.014 660.87 446.643C643.253 465.512 625.093 485.043 610.488 506.589C585.852 538.048 569.66 573.652 553.996 608.039C543.499 631.151 533.562 652.994 521.458 672.966L521.198 673.337C484.424 717.251 458.338 699.814 410.958 668.213C405.808 664.776 400.384 661.155 394.612 657.412C384.497 649.715 373.329 641.612 361.485 633.002C308.82 594.775 236.699 542.366 167.413 459.738C90.2798 356.721 99.8004 258.61 143.423 207.012C189.29 154.727 260.412 151.195 383.967 163.029C509.856 178.539 605.863 242.697 657.434 277.174L663.185 281.009C698.185 307.54 712.528 319.094 716.828 335.144ZM711.357 365.596C715.899 329.157 711.214 324.434 659.805 285.355L654.213 281.607C603.033 247.412 507.743 183.75 383.284 168.373C261.801 156.714 191.959 159.989 147.783 210.359C105.56 260.292 96.6326 355.749 171.954 456.371C240.722 538.406 312.546 590.551 364.959 628.673C376.803 637.283 387.971 645.386 398.023 653.014C403.636 656.671 409.06 660.292 414.252 663.718C461.685 695.347 483.381 709.833 516.743 670.144C528.617 650.491 538.43 628.853 548.855 605.976C564.611 571.263 580.959 535.402 605.898 503.562C620.628 481.81 638.965 462.103 656.718 443.068C681.875 416.071 705.663 390.517 711.357 365.596Z" fill="#A7CEFC"/>
<path d="M686.99 350.708C689.818 361.261 688.496 372.108 685.048 386.106C677.666 409.931 655.484 433.421 632.049 458.279C618.096 473.027 603.705 488.323 591.15 504.761C570.871 528.472 555.052 554.386 539.71 579.397C527.127 599.929 515.272 619.318 502.054 635.633L501.845 635.861C465.757 671.42 439.216 651.782 391.012 616.101L390.453 615.692L382.204 608.914C335.369 570.287 271.213 517.378 213.416 436.832C149.776 340.521 167.706 263.552 202.327 226.881C239.244 187.702 300.431 178.489 413.515 195.064C492.692 207.996 570.131 242.982 643.672 299.01C670.385 321.139 682.948 335.621 686.99 350.708ZM497.693 632.286C510.629 616.262 522.401 597.066 534.817 576.752C550.242 551.546 566.239 525.456 586.684 501.528C599.291 484.947 613.84 469.566 627.897 454.704C650.925 430.342 672.648 407.319 679.617 384.809C687.539 352.926 683.536 339.161 640.029 303.212C567.239 247.799 490.664 213.184 412.475 200.418C301.548 184.167 241.84 192.855 206.395 230.479C170.479 268.529 160.141 346.129 218.054 433.826C275.405 513.717 339.224 566.372 385.868 604.793L394.455 611.825C442.997 647.759 465.22 664.21 497.693 632.286Z" fill="#A7CEFC"/>
<path d="M659.12 362.217C662.281 374.014 661.01 386.225 656.01 400.81L655.99 400.901C647.631 423.096 626.552 444.828 604.283 467.826C593.953 478.464 583.32 489.484 573.446 500.989C558.69 516.769 545.6 533.394 532.99 549.459C517.49 569.18 502.836 587.858 487.448 601.615C454.086 627.369 428.293 609.681 389.674 577.539C352.286 543.777 297.682 490.76 254.708 419.359C219.007 349.751 216.94 291 248.804 253.777C283.119 213.618 351.739 202.93 437.085 224.443C536.095 244.403 605.718 299.245 624.671 315.583C644.137 333.161 655.142 347.371 659.12 362.217ZM650.683 399.227C659.978 371.965 657.888 353.086 620.807 319.629C602.149 303.555 533.434 249.417 435.666 229.726C352.447 208.761 285.936 218.755 253.133 257.176C222.783 292.66 225.142 349.312 259.727 416.767C302.276 487.422 356.468 540.076 393.549 573.533C433.277 606.625 455.165 619.812 483.903 597.619C498.737 584.312 513.224 565.851 528.588 546.295C541.303 530.115 554.413 513.4 569.284 497.545C579.147 486 589.906 474.946 600.268 464.257C622.056 441.646 642.706 420.33 650.683 399.227Z" fill="#A7CEFC"/>
<path d="M633.334 371.407C636.688 383.926 635.283 396.645 629.504 411.009L629.297 411.409C593.085 470.181 496.571 554.057 477.613 570.276L477.153 570.571C448.18 587.021 424.978 573.628 392.308 543.203C362.852 514.197 321.589 466.98 292.05 406.602C266.677 350.526 267.916 303.102 295.524 272.998C326.201 239.576 384.328 231.699 455 251.339C522.34 267.27 577.206 302.628 606.066 330.417C620.868 345.03 629.775 358.125 633.334 371.407ZM624.363 408.946C635.307 381.457 629.247 361.191 602.021 334.296C573.701 307.007 519.774 272.301 453.434 256.575C385.825 237.792 328.401 245.266 299.707 276.521C273.623 304.927 272.698 350.331 297.186 404.279C326.395 463.929 367.245 510.611 396.352 539.324C427.595 568.454 448.257 580.593 474.193 566.074C528.65 519.486 596.624 453.837 624.363 408.946Z" fill="#A7CEFC"/>
<path d="M609.612 380.085C613.203 393.487 611.651 406.332 604.982 417.537C578.765 462.235 513.397 518.972 471.084 541.878C461.106 546.444 450.229 546.649 438.706 542.597C403.191 530.095 360.984 476.164 325.811 398.287C308.841 353.592 312.545 315.872 336.239 291.977C363.087 264.914 411.168 259.17 468.099 276.213C540.429 298.849 592.452 335.183 607.364 373.376C608.282 375.625 609.021 377.878 609.612 380.085ZM325.507 379.187C326.99 384.725 328.822 390.384 331.042 396.154C365.555 472.574 406.59 525.486 440.746 537.449C450.878 541.013 460.242 540.87 468.616 537.034C510.059 514.576 574.382 458.808 600.131 414.88C607.008 403.275 607.704 389.585 602.132 375.338C587.796 338.624 537.03 303.458 466.322 281.334C412.328 265.181 365.212 270.495 340.275 295.626C321.189 314.889 316.121 344.158 325.507 379.187Z" fill="#A7CEFC"/>
<path d="M586.194 385.027C589.527 397.466 588.265 409.544 582.412 420.273C561.664 458.517 508.067 503.111 467.742 515.637L467.658 515.659C430.146 525.925 383.297 474.486 356.345 393.373C346.056 358.5 351.334 329.175 371.308 310.706C394.198 289.521 432.724 285.39 477.046 299.361C531.036 316.848 570.92 346.156 583.765 377.808C584.736 380.257 585.559 382.659 586.194 385.027ZM466.176 510.465C505.285 498.266 557.302 454.998 577.436 417.822C583.622 406.488 583.984 393.403 578.522 379.9C566.243 349.689 527.606 321.508 475.143 304.516C432.885 291.196 396.395 294.867 375.094 314.594C356.751 331.594 351.934 358.946 361.664 391.733C387.267 468.648 432.221 519.736 466.176 510.465Z" fill="#A7CEFC"/>
<path d="M563.841 389.081C566.754 399.954 565.872 410.598 561.127 420.256C544.61 454.141 501.493 486.638 466.932 491.297C433.617 495.235 397.209 451.362 384.027 391.589C378.635 365.252 384.682 343.161 400.994 329.329C419.691 313.482 449.343 310.482 482.304 321.175C520.932 333.876 550.401 356.385 561.146 381.374C562.286 383.949 563.153 386.513 563.841 389.081ZM391.779 399.533C405.82 451.936 437.565 489.317 466.342 485.907C498.603 481.563 540.537 449.856 556.08 418.039C561.188 407.553 561.148 395.651 555.967 383.535C545.808 359.895 517.544 338.525 480.391 326.289C449.399 316.23 421.794 318.81 404.634 333.342C389.932 345.797 384.567 366.071 389.506 390.379C390.239 393.451 390.972 396.523 391.779 399.533Z" fill="#A7CEFC"/>
<path d="M542.381 392.596C544.724 401.343 544.209 409.996 540.831 418.04C529.091 445.915 496.509 468.536 468.194 468.468C440.141 468.2 414.336 434.689 409.446 392.262C407.409 373.412 413.253 357.612 425.911 347.769C440.243 336.618 461.629 334.5 484.585 341.939C510.818 350.521 530.828 366.103 539.453 384.693C540.688 387.286 541.671 389.947 542.381 392.596ZM468.361 463.047C494.069 463.126 524.882 441.624 535.638 416.12C539.462 407.054 539.012 396.982 534.348 386.964C526.416 369.952 507.114 354.997 482.703 347.002C461.621 340.179 442.219 341.98 429.404 351.908C418.305 360.516 413.218 374.608 415.054 391.534C419.525 430.718 443.461 462.795 468.361 463.047Z" fill="#A7CEFC"/>
<path d="M521.557 395.809C523.18 401.868 523.113 408.165 520.963 414.246C513.938 434.534 491.409 449.172 470.785 446.915C450.234 444.594 433.225 421.241 432.887 394.797C432.719 382.585 437.576 372.338 446.482 365.952C456.298 358.935 470.121 357.468 484.357 361.911C503.911 368.068 517.665 381.284 521.557 395.809ZM515.678 412.651C521.742 395.157 506.905 374.706 482.538 367.043C470.071 363.158 458.096 364.303 449.797 370.268C442.398 375.562 438.373 384.209 438.509 394.623C438.831 418.491 453.651 439.55 471.551 441.548C489.672 443.531 509.458 430.574 515.678 412.651Z" fill="#A7CEFC"/>
<path d="M501.209 399.283C502.09 402.573 502.153 405.997 501.259 409.376C498.196 420.948 486.061 428.543 474.16 426.27C462.407 424.044 453.724 411.619 454.834 398.635C455.364 392.386 458.359 387.111 463.332 383.843C468.566 380.377 475.529 379.5 482.404 381.485C492.122 384.343 499.069 391.298 501.209 399.283ZM461.146 406.577C463.092 413.84 468.582 419.723 475.411 421.032C484.365 422.719 493.537 416.993 495.818 408.21C498.151 399.457 491.335 389.801 480.659 386.727C475.342 385.184 470.322 385.755 466.428 388.347C462.91 390.665 460.779 394.462 460.386 399.04C460.223 401.621 460.501 404.17 461.146 406.577Z" fill="#A7CEFC"/>
</g>
</svg>
